<?xml version="1.0" encoding="UTF-8" standalone="no"?>
<!DOCTYPE svg PUBLIC "-//W3C//DTD SVG 1.1//EN" "http://www.w3.org/Graphics/SVG/1.1/DTD/svg11.dtd">
<svg width="100%" height="100%" viewBox="0 0 50 50" version="1.1" xmlns="http://www.w3.org/2000/svg" xmlns:xlink="http://www.w3.org/1999/xlink" xml:space="preserve" xmlns:serif="http://www.serif.com/" style="fill-rule:evenodd;clip-rule:evenodd;stroke-linejoin:round;stroke-miterlimit:2;">
    <g transform="matrix(1.08696,0,0,1.08696,16.3043,7.6087)">
        <circle cx="8" cy="16" r="23"/>
        <path d="M8.149,-7L8.297,-6.998L8.445,-6.996L8.593,-6.992L8.741,-6.988L8.889,-6.983L9.036,-6.977L9.183,-6.97L9.33,-6.962L9.476,-6.953L9.622,-6.944L9.769,-6.933L9.914,-6.921L10.06,-6.909L10.205,-6.895L10.35,-6.881L10.495,-6.866L10.639,-6.85L10.784,-6.833L10.928,-6.815L11.071,-6.796L11.215,-6.777L11.358,-6.756L11.501,-6.735L11.643,-6.713L11.786,-6.689L11.927,-6.665L12.069,-6.64L12.211,-6.615L12.352,-6.588L12.492,-6.561L12.633,-6.532L12.773,-6.503L12.913,-6.473L13.052,-6.442L13.192,-6.411L13.33,-6.378L13.469,-6.345L13.607,-6.31L13.745,-6.275L13.883,-6.239L14.02,-6.203L14.157,-6.165L14.294,-6.127L14.43,-6.088L14.566,-6.048L14.701,-6.007L14.836,-5.965L14.971,-5.923L15.106,-5.88L15.24,-5.836L15.373,-5.791L15.507,-5.745L15.64,-5.699L15.773,-5.651L15.905,-5.603L16.037,-5.555L16.168,-5.505L16.299,-5.455L16.43,-5.404L16.56,-5.352L16.69,-5.299L16.82,-5.246L16.949,-5.191L17.078,-5.136L17.206,-5.081L17.334,-5.024L17.462,-4.967L17.589,-4.909L17.716,-4.85L17.842,-4.791L17.968,-4.73L18.093,-4.67L18.218,-4.608L18.343,-4.545L18.467,-4.482L18.591,-4.418L18.714,-4.354L18.837,-4.288L18.959,-4.222L19.081,-4.156L19.203,-4.088L19.324,-4.02L19.445,-3.951L19.565,-3.881L19.685,-3.811L19.804,-3.74L19.923,-3.668L20.041,-3.596L20.159,-3.523L20.276,-3.449L20.393,-3.374L20.509,-3.299L20.625,-3.223L20.741,-3.147L20.856,-3.07L20.97,-2.992L21.084,-2.913L21.198,-2.834L21.311,-2.754L21.423,-2.674L21.535,-2.593L21.647,-2.511L21.758,-2.428L21.868,-2.345L21.978,-2.261L22.087,-2.177L22.196,-2.092L22.305,-2.006L22.413,-1.92L22.52,-1.833L22.627,-1.745L22.733,-1.657L22.839,-1.568L22.944,-1.479L23.048,-1.389L23.152,-1.298L23.256,-1.207L23.359,-1.115L23.461,-1.022L23.563,-0.929L23.664,-0.835L23.765,-0.741L23.865,-0.646L23.965,-0.55L24.064,-0.454L24.162,-0.358L24.26,-0.26L24.358,-0.162L24.454,-0.064L24.55,0.035L24.646,0.135L24.741,0.235L24.835,0.336L24.929,0.437L25.022,0.539L25.115,0.641L25.207,0.744L25.298,0.848L25.389,0.952L25.479,1.056L25.568,1.161L25.657,1.267L25.745,1.373L25.833,1.48L25.92,1.587L26.006,1.695L26.092,1.804L26.177,1.913L26.261,2.022L26.345,2.132L26.428,2.242L26.511,2.353L26.593,2.465L26.674,2.577L26.754,2.689L26.834,2.802L26.913,2.916L26.992,3.03L27.07,3.144L27.147,3.259L27.223,3.375L27.299,3.491L27.374,3.607L27.449,3.724L27.523,3.841L27.596,3.959L27.668,4.077L27.74,4.196L27.811,4.315L27.881,4.435L27.951,4.555L28.02,4.676L28.088,4.797L28.156,4.919L28.222,5.041L28.288,5.163L28.354,5.286L28.418,5.409L28.482,5.533L28.545,5.657L28.608,5.782L28.67,5.907L28.73,6.032L28.791,6.158L28.85,6.284L28.909,6.411L28.967,6.538L29.024,6.666L29.081,6.794L29.136,6.922L29.191,7.051L29.246,7.18L29.299,7.31L29.352,7.44L29.404,7.57L29.455,7.701L29.505,7.832L29.555,7.963L29.603,8.095L29.651,8.227L29.699,8.36L29.745,8.493L29.791,8.627L29.836,8.76L29.88,8.894L29.923,9.029L29.965,9.164L30.007,9.299L30.048,9.434L30.088,9.57L30.127,9.706L30.165,9.843L30.203,9.98L30.239,10.117L30.275,10.255L30.31,10.393L30.345,10.531L30.378,10.67L30.411,10.808L30.442,10.948L30.473,11.087L30.503,11.227L30.532,11.367L30.561,11.508L30.588,11.648L30.615,11.789L30.64,11.931L30.665,12.073L30.689,12.214L30.713,12.357L30.735,12.499L30.756,12.642L30.777,12.785L30.796,12.929L30.815,13.072L30.833,13.216L30.85,13.361L30.866,13.505L30.881,13.65L30.895,13.795L30.909,13.94L30.921,14.086L30.933,14.231L30.944,14.378L30.953,14.524L30.962,14.67L30.97,14.817L30.977,14.964L30.983,15.111L30.988,15.259L30.992,15.407L30.996,15.555L30.998,15.703L31,15.851L31,16L31,16.149L30.998,16.297L30.996,16.445L30.992,16.593L30.988,16.741L30.983,16.889L30.977,17.036L30.97,17.183L30.962,17.33L30.953,17.476L30.944,17.622L30.933,17.769L30.921,17.914L30.909,18.06L30.895,18.205L30.881,18.35L30.866,18.495L30.85,18.639L30.833,18.784L30.815,18.928L30.796,19.071L30.777,19.215L30.756,19.358L30.735,19.501L30.713,19.643L30.689,19.786L30.665,19.927L30.64,20.069L30.615,20.211L30.588,20.352L30.561,20.492L30.532,20.633L30.503,20.773L30.473,20.913L30.442,21.052L30.411,21.192L30.378,21.33L30.345,21.469L30.31,21.607L30.275,21.745L30.239,21.883L30.203,22.02L30.165,22.157L30.127,22.294L30.088,22.43L30.048,22.566L30.007,22.701L29.965,22.836L29.923,22.971L29.88,23.106L29.836,23.24L29.791,23.373L29.745,23.507L29.699,23.64L29.651,23.773L29.603,23.905L29.555,24.037L29.505,24.168L29.455,24.299L29.404,24.43L29.352,24.56L29.299,24.69L29.246,24.82L29.191,24.949L29.136,25.078L29.081,25.206L29.024,25.334L28.967,25.462L28.909,25.589L28.85,25.716L28.791,25.842L28.73,25.968L28.67,26.093L28.608,26.218L28.545,26.343L28.482,26.467L28.418,26.591L28.354,26.714L28.288,26.837L28.222,26.959L28.156,27.081L28.088,27.203L28.02,27.324L27.951,27.445L27.881,27.565L27.811,27.685L27.74,27.804L27.668,27.923L27.596,28.041L27.523,28.159L27.449,28.276L27.374,28.393L27.299,28.509L27.223,28.625L27.147,28.741L27.07,28.856L26.992,28.97L26.913,29.084L26.834,29.198L26.754,29.311L26.674,29.423L26.593,29.535L26.511,29.647L26.428,29.758L26.345,29.868L26.261,29.978L26.177,30.087L26.092,30.196L26.006,30.305L25.92,30.413L25.833,30.52L25.745,30.627L25.657,30.733L25.568,30.839L25.479,30.944L25.389,31.048L25.298,31.152L25.207,31.256L25.115,31.359L25.022,31.461L24.929,31.563L24.835,31.664L24.741,31.765L24.646,31.865L24.55,31.965L24.454,32.064L24.358,32.162L24.26,32.26L24.162,32.358L24.064,32.454L23.965,32.55L23.865,32.646L23.765,32.741L23.664,32.835L23.563,32.929L23.461,33.022L23.359,33.115L23.256,33.207L23.152,33.298L23.048,33.389L22.944,33.479L22.839,33.568L22.733,33.657L22.627,33.745L22.52,33.833L22.413,33.92L22.305,34.006L22.196,34.092L22.087,34.177L21.978,34.261L21.868,34.345L21.758,34.428L21.647,34.511L21.535,34.593L21.423,34.674L21.311,34.754L21.198,34.834L21.084,34.913L20.97,34.992L20.856,35.07L20.741,35.147L20.625,35.223L20.509,35.299L20.393,35.374L20.276,35.449L20.159,35.523L20.041,35.596L19.923,35.668L19.804,35.74L19.685,35.811L19.565,35.881L19.445,35.951L19.324,36.02L19.203,36.088L19.081,36.156L18.959,36.222L18.837,36.288L18.714,36.354L18.591,36.418L18.467,36.482L18.343,36.545L18.218,36.608L18.093,36.67L17.968,36.73L17.842,36.791L17.716,36.85L17.589,36.909L17.462,36.967L17.334,37.024L17.206,37.081L17.078,37.136L16.949,37.191L16.82,37.246L16.69,37.299L16.56,37.352L16.43,37.404L16.299,37.455L16.168,37.505L16.037,37.555L15.905,37.603L15.773,37.651L15.64,37.699L15.507,37.745L15.373,37.791L15.24,37.836L15.106,37.88L14.971,37.923L14.836,37.965L14.701,38.007L14.566,38.048L14.43,38.088L14.294,38.127L14.157,38.165L14.02,38.203L13.883,38.239L13.745,38.275L13.607,38.31L13.469,38.345L13.33,38.378L13.192,38.411L13.052,38.442L12.913,38.473L12.773,38.503L12.633,38.532L12.492,38.561L12.352,38.588L12.211,38.615L12.069,38.64L11.927,38.665L11.786,38.689L11.643,38.713L11.501,38.735L11.358,38.756L11.215,38.777L11.071,38.796L10.928,38.815L10.784,38.833L10.639,38.85L10.495,38.866L10.35,38.881L10.205,38.895L10.06,38.909L9.914,38.921L9.769,38.933L9.622,38.944L9.476,38.953L9.33,38.962L9.183,38.97L9.036,38.977L8.889,38.983L8.741,38.988L8.593,38.992L8.445,38.996L8.297,38.998L8.149,39L8,39L7.851,39L7.703,38.998L7.555,38.996L7.407,38.992L7.259,38.988L7.111,38.983L6.964,38.977L6.817,38.97L6.67,38.962L6.524,38.953L6.378,38.944L6.231,38.933L6.086,38.921L5.94,38.909L5.795,38.895L5.65,38.881L5.505,38.866L5.361,38.85L5.216,38.833L5.072,38.815L4.929,38.796L4.785,38.777L4.642,38.756L4.499,38.735L4.357,38.713L4.214,38.689L4.073,38.665L3.931,38.64L3.789,38.615L3.648,38.588L3.508,38.561L3.367,38.532L3.227,38.503L3.087,38.473L2.948,38.442L2.808,38.411L2.67,38.378L2.531,38.345L2.393,38.31L2.255,38.275L2.117,38.239L1.98,38.203L1.843,38.165L1.706,38.127L1.57,38.088L1.434,38.048L1.299,38.007L1.164,37.965L1.029,37.923L0.894,37.88L0.76,37.836L0.627,37.791L0.493,37.745L0.36,37.699L0.227,37.651L0.095,37.603L-0.037,37.555L-0.168,37.505L-0.299,37.455L-0.43,37.404L-0.56,37.352L-0.69,37.299L-0.82,37.246L-0.949,37.191L-1.078,37.136L-1.206,37.081L-1.334,37.024L-1.462,36.967L-1.589,36.909L-1.716,36.85L-1.842,36.791L-1.968,36.73L-2.093,36.67L-2.218,36.608L-2.343,36.545L-2.467,36.482L-2.591,36.418L-2.714,36.354L-2.837,36.288L-2.959,36.222L-3.081,36.156L-3.203,36.088L-3.324,36.02L-3.445,35.951L-3.565,35.881L-3.685,35.811L-3.804,35.74L-3.923,35.668L-4.041,35.596L-4.159,35.523L-4.276,35.449L-4.393,35.374L-4.509,35.299L-4.625,35.223L-4.741,35.147L-4.856,35.07L-4.97,34.992L-5.084,34.913L-5.198,34.834L-5.311,34.754L-5.423,34.674L-5.535,34.593L-5.647,34.511L-5.758,34.428L-5.868,34.345L-5.978,34.261L-6.087,34.177L-6.196,34.092L-6.305,34.006L-6.413,33.92L-6.52,33.833L-6.627,33.745L-6.733,33.657L-6.839,33.568L-6.944,33.479L-7.048,33.389L-7.152,33.298L-7.256,33.207L-7.359,33.115L-7.461,33.022L-7.563,32.929L-7.664,32.835L-7.765,32.741L-7.865,32.646L-7.965,32.55L-8.064,32.454L-8.162,32.358L-8.26,32.26L-8.358,32.162L-8.454,32.064L-8.55,31.965L-8.646,31.865L-8.741,31.765L-8.835,31.664L-8.929,31.563L-9.022,31.461L-9.115,31.359L-9.207,31.256L-9.298,31.152L-9.389,31.048L-9.479,30.944L-9.568,30.839L-9.657,30.733L-9.745,30.627L-9.833,30.52L-9.92,30.413L-10.006,30.305L-10.092,30.196L-10.177,30.087L-10.261,29.978L-10.345,29.868L-10.428,29.758L-10.511,29.647L-10.593,29.535L-10.674,29.423L-10.754,29.311L-10.834,29.198L-10.913,29.084L-10.992,28.97L-11.07,28.856L-11.147,28.741L-11.223,28.625L-11.299,28.509L-11.374,28.393L-11.449,28.276L-11.523,28.159L-11.596,28.041L-11.668,27.923L-11.74,27.804L-11.811,27.685L-11.881,27.565L-11.951,27.445L-12.02,27.324L-12.088,27.203L-12.156,27.081L-12.222,26.959L-12.288,26.837L-12.354,26.714L-12.418,26.591L-12.482,26.467L-12.545,26.343L-12.608,26.218L-12.67,26.093L-12.73,25.968L-12.791,25.842L-12.85,25.716L-12.909,25.589L-12.967,25.462L-13.024,25.334L-13.081,25.206L-13.136,25.078L-13.191,24.949L-13.246,24.82L-13.299,24.69L-13.352,24.56L-13.404,24.43L-13.455,24.299L-13.505,24.168L-13.555,24.037L-13.603,23.905L-13.651,23.773L-13.699,23.64L-13.745,23.507L-13.791,23.373L-13.836,23.24L-13.88,23.106L-13.923,22.971L-13.965,22.836L-14.007,22.701L-14.048,22.566L-14.088,22.43L-14.127,22.294L-14.165,22.157L-14.203,22.02L-14.239,21.883L-14.275,21.745L-14.31,21.607L-14.345,21.469L-14.378,21.33L-14.411,21.192L-14.442,21.052L-14.473,20.913L-14.503,20.773L-14.532,20.633L-14.561,20.492L-14.588,20.352L-14.615,20.211L-14.64,20.069L-14.665,19.927L-14.689,19.786L-14.713,19.643L-14.735,19.501L-14.756,19.358L-14.777,19.215L-14.796,19.071L-14.815,18.928L-14.833,18.784L-14.85,18.639L-14.866,18.495L-14.881,18.35L-14.895,18.205L-14.909,18.06L-14.921,17.914L-14.933,17.769L-14.944,17.622L-14.953,17.476L-14.962,17.33L-14.97,17.183L-14.977,17.036L-14.983,16.889L-14.988,16.741L-14.992,16.593L-14.996,16.445L-14.998,16.297L-15,16.149L-15,16L-15,15.851L-14.998,15.703L-14.996,15.555L-14.992,15.407L-14.988,15.259L-14.983,15.111L-14.977,14.964L-14.97,14.817L-14.962,14.67L-14.953,14.524L-14.944,14.378L-14.933,14.231L-14.921,14.086L-14.909,13.94L-14.895,13.795L-14.881,13.65L-14.866,13.505L-14.85,13.361L-14.833,13.216L-14.815,13.072L-14.796,12.929L-14.777,12.785L-14.756,12.642L-14.735,12.499L-14.713,12.357L-14.689,12.214L-14.665,12.073L-14.64,11.931L-14.615,11.789L-14.588,11.648L-14.561,11.508L-14.532,11.367L-14.503,11.227L-14.473,11.087L-14.442,10.948L-14.411,10.808L-14.378,10.67L-14.345,10.531L-14.31,10.393L-14.275,10.255L-14.239,10.117L-14.203,9.98L-14.165,9.843L-14.127,9.706L-14.088,9.57L-14.048,9.434L-14.007,9.299L-13.965,9.164L-13.923,9.029L-13.88,8.894L-13.836,8.76L-13.791,8.627L-13.745,8.493L-13.699,8.36L-13.651,8.227L-13.603,8.095L-13.555,7.963L-13.505,7.832L-13.455,7.701L-13.404,7.57L-13.352,7.44L-13.299,7.31L-13.246,7.18L-13.191,7.051L-13.136,6.922L-13.081,6.794L-13.024,6.666L-12.967,6.538L-12.909,6.411L-12.85,6.284L-12.791,6.158L-12.73,6.032L-12.67,5.907L-12.608,5.782L-12.545,5.657L-12.482,5.533L-12.418,5.409L-12.354,5.286L-12.288,5.163L-12.222,5.041L-12.156,4.919L-12.088,4.797L-12.02,4.676L-11.951,4.555L-11.881,4.435L-11.811,4.315L-11.74,4.196L-11.668,4.077L-11.596,3.959L-11.523,3.841L-11.449,3.724L-11.374,3.607L-11.299,3.491L-11.223,3.375L-11.147,3.259L-11.07,3.144L-10.992,3.03L-10.913,2.916L-10.834,2.802L-10.754,2.689L-10.674,2.577L-10.593,2.465L-10.511,2.353L-10.428,2.242L-10.345,2.132L-10.261,2.022L-10.177,1.913L-10.092,1.804L-10.006,1.695L-9.92,1.587L-9.833,1.48L-9.745,1.373L-9.657,1.267L-9.568,1.161L-9.479,1.056L-9.389,0.952L-9.298,0.848L-9.207,0.744L-9.115,0.641L-9.022,0.539L-8.929,0.437L-8.835,0.336L-8.741,0.235L-8.646,0.135L-8.55,0.035L-8.454,-0.064L-8.358,-0.162L-8.26,-0.26L-8.162,-0.358L-8.064,-0.454L-7.965,-0.55L-7.865,-0.646L-7.765,-0.741L-7.664,-0.835L-7.563,-0.929L-7.461,-1.022L-7.359,-1.115L-7.256,-1.207L-7.152,-1.298L-7.048,-1.389L-6.944,-1.479L-6.839,-1.568L-6.733,-1.657L-6.627,-1.745L-6.52,-1.833L-6.413,-1.92L-6.305,-2.006L-6.196,-2.092L-6.087,-2.177L-5.978,-2.261L-5.868,-2.345L-5.758,-2.428L-5.647,-2.511L-5.535,-2.593L-5.423,-2.674L-5.311,-2.754L-5.198,-2.834L-5.084,-2.913L-4.97,-2.992L-4.856,-3.07L-4.741,-3.147L-4.625,-3.223L-4.509,-3.299L-4.393,-3.374L-4.276,-3.449L-4.159,-3.523L-4.041,-3.596L-3.923,-3.668L-3.804,-3.74L-3.685,-3.811L-3.565,-3.881L-3.445,-3.951L-3.324,-4.02L-3.203,-4.088L-3.081,-4.156L-2.959,-4.222L-2.837,-4.288L-2.714,-4.354L-2.591,-4.418L-2.467,-4.482L-2.343,-4.545L-2.218,-4.608L-2.093,-4.67L-1.968,-4.73L-1.842,-4.791L-1.716,-4.85L-1.589,-4.909L-1.462,-4.967L-1.334,-5.024L-1.206,-5.081L-1.078,-5.136L-0.949,-5.191L-0.82,-5.246L-0.69,-5.299L-0.56,-5.352L-0.43,-5.404L-0.299,-5.455L-0.168,-5.505L-0.037,-5.555L0.095,-5.603L0.227,-5.651L0.36,-5.699L0.493,-5.745L0.627,-5.791L0.76,-5.836L0.894,-5.88L1.029,-5.923L1.164,-5.965L1.299,-6.007L1.434,-6.048L1.57,-6.088L1.706,-6.127L1.843,-6.165L1.98,-6.203L2.117,-6.239L2.255,-6.275L2.393,-6.31L2.531,-6.345L2.67,-6.378L2.808,-6.411L2.948,-6.442L3.087,-6.473L3.227,-6.503L3.367,-6.532L3.508,-6.561L3.648,-6.588L3.789,-6.615L3.931,-6.64L4.073,-6.665L4.214,-6.689L4.357,-6.713L4.499,-6.735L4.642,-6.756L4.785,-6.777L4.929,-6.796L5.072,-6.815L5.216,-6.833L5.361,-6.85L5.505,-6.866L5.65,-6.881L5.795,-6.895L5.94,-6.909L6.086,-6.921L6.231,-6.933L6.378,-6.944L6.524,-6.953L6.67,-6.962L6.817,-6.97L6.964,-6.977L7.111,-6.983L7.259,-6.988L7.407,-6.992L7.555,-6.996L7.703,-6.998L7.851,-7L8,-7L8.149,-7ZM7.857,-6.08L7.715,-6.078L7.572,-6.076L7.43,-6.073L7.288,-6.069L7.146,-6.064L7.005,-6.058L6.864,-6.051L6.723,-6.044L6.582,-6.035L6.442,-6.026L6.301,-6.016L6.161,-6.004L6.022,-5.992L5.882,-5.98L5.743,-5.966L5.604,-5.951L5.465,-5.936L5.327,-5.92L5.188,-5.902L5.051,-5.884L4.913,-5.866L4.776,-5.846L4.638,-5.825L4.502,-5.804L4.365,-5.782L4.229,-5.759L4.093,-5.735L3.957,-5.71L3.822,-5.685L3.687,-5.658L3.552,-5.631L3.417,-5.603L3.283,-5.574L3.149,-5.545L3.016,-5.514L2.882,-5.483L2.749,-5.451L2.617,-5.418L2.484,-5.384L2.352,-5.35L2.22,-5.315L2.089,-5.279L1.958,-5.242L1.827,-5.204L1.697,-5.166L1.567,-5.127L1.437,-5.087L1.308,-5.046L1.179,-5.005L1.05,-4.962L0.922,-4.919L0.794,-4.876L0.666,-4.831L0.539,-4.786L0.412,-4.74L0.285,-4.693L0.159,-4.645L0.033,-4.597L-0.092,-4.548L-0.217,-4.498L-0.342,-4.447L-0.466,-4.396L-0.59,-4.344L-0.714,-4.291L-0.837,-4.238L-0.96,-4.184L-1.082,-4.129L-1.204,-4.073L-1.326,-4.017L-1.447,-3.96L-1.568,-3.902L-1.689,-3.843L-1.809,-3.784L-1.928,-3.724L-2.047,-3.663L-2.166,-3.602L-2.285,-3.54L-2.403,-3.477L-2.52,-3.414L-2.637,-3.35L-2.754,-3.285L-2.87,-3.22L-2.986,-3.153L-3.101,-3.087L-3.216,-3.019L-3.331,-2.951L-3.445,-2.882L-3.558,-2.813L-3.671,-2.742L-3.784,-2.672L-3.896,-2.6L-4.008,-2.528L-4.119,-2.455L-4.23,-2.382L-4.341,-2.307L-4.451,-2.233L-4.56,-2.157L-4.669,-2.081L-4.777,-2.005L-4.885,-1.927L-4.993,-1.849L-5.1,-1.771L-5.207,-1.692L-5.313,-1.612L-5.418,-1.531L-5.523,-1.45L-5.628,-1.368L-5.732,-1.286L-5.835,-1.203L-5.938,-1.12L-6.041,-1.036L-6.143,-0.951L-6.244,-0.866L-6.345,-0.78L-6.446,-0.693L-6.546,-0.606L-6.645,-0.518L-6.744,-0.43L-6.842,-0.341L-6.94,-0.252L-7.038,-0.162L-7.134,-0.071L-7.23,0.02L-7.326,0.112L-7.421,0.204L-7.516,0.297L-7.61,0.39L-7.703,0.484L-7.796,0.579L-7.888,0.674L-7.98,0.77L-8.071,0.866L-8.162,0.962L-8.252,1.06L-8.341,1.158L-8.43,1.256L-8.518,1.355L-8.606,1.454L-8.693,1.554L-8.78,1.655L-8.866,1.756L-8.951,1.857L-9.036,1.959L-9.12,2.062L-9.203,2.165L-9.286,2.268L-9.368,2.372L-9.45,2.477L-9.531,2.582L-9.612,2.687L-9.692,2.793L-9.771,2.9L-9.849,3.007L-9.927,3.115L-10.005,3.223L-10.081,3.331L-10.157,3.44L-10.233,3.549L-10.307,3.659L-10.382,3.77L-10.455,3.881L-10.528,3.992L-10.6,4.104L-10.672,4.216L-10.742,4.329L-10.813,4.442L-10.882,4.555L-10.951,4.669L-11.019,4.784L-11.087,4.899L-11.153,5.014L-11.22,5.13L-11.285,5.246L-11.35,5.363L-11.414,5.48L-11.477,5.597L-11.54,5.715L-11.602,5.834L-11.663,5.953L-11.724,6.072L-11.784,6.191L-11.843,6.311L-11.902,6.432L-11.96,6.553L-12.017,6.674L-12.073,6.796L-12.129,6.918L-12.184,7.04L-12.238,7.163L-12.291,7.286L-12.344,7.41L-12.396,7.534L-12.447,7.658L-12.498,7.783L-12.548,7.908L-12.597,8.033L-12.645,8.159L-12.693,8.285L-12.74,8.412L-12.786,8.539L-12.831,8.666L-12.876,8.794L-12.919,8.922L-12.962,9.05L-13.005,9.179L-13.046,9.308L-13.087,9.437L-13.127,9.567L-13.166,9.697L-13.204,9.827L-13.242,9.958L-13.279,10.089L-13.315,10.22L-13.35,10.352L-13.384,10.484L-13.418,10.617L-13.451,10.749L-13.483,10.882L-13.514,11.016L-13.545,11.149L-13.574,11.283L-13.603,11.417L-13.631,11.552L-13.658,11.687L-13.685,11.822L-13.71,11.957L-13.735,12.093L-13.759,12.229L-13.782,12.365L-13.804,12.502L-13.825,12.638L-13.846,12.776L-13.866,12.913L-13.884,13.051L-13.902,13.188L-13.92,13.327L-13.936,13.465L-13.951,13.604L-13.966,13.743L-13.98,13.882L-13.992,14.022L-14.004,14.161L-14.016,14.301L-14.026,14.442L-14.035,14.582L-14.044,14.723L-14.051,14.864L-14.058,15.005L-14.064,15.146L-14.069,15.288L-14.073,15.43L-14.076,15.572L-14.078,15.715L-14.08,15.857L-14.08,16L-14.08,16.143L-14.078,16.285L-14.076,16.428L-14.073,16.57L-14.069,16.712L-14.064,16.854L-14.058,16.995L-14.051,17.136L-14.044,17.277L-14.035,17.418L-14.026,17.558L-14.016,17.699L-14.004,17.839L-13.992,17.978L-13.98,18.118L-13.966,18.257L-13.951,18.396L-13.936,18.535L-13.92,18.673L-13.902,18.812L-13.884,18.949L-13.866,19.087L-13.846,19.224L-13.825,19.362L-13.804,19.498L-13.782,19.635L-13.759,19.771L-13.735,19.907L-13.71,20.043L-13.685,20.178L-13.658,20.313L-13.631,20.448L-13.603,20.583L-13.574,20.717L-13.545,20.851L-13.514,20.984L-13.483,21.118L-13.451,21.251L-13.418,21.383L-13.384,21.516L-13.35,21.648L-13.315,21.78L-13.279,21.911L-13.242,22.042L-13.204,22.173L-13.166,22.303L-13.127,22.433L-13.087,22.563L-13.046,22.692L-13.005,22.821L-12.962,22.95L-12.919,23.078L-12.876,23.206L-12.831,23.334L-12.786,23.461L-12.74,23.588L-12.693,23.715L-12.645,23.841L-12.597,23.967L-12.548,24.092L-12.498,24.217L-12.447,24.342L-12.396,24.466L-12.344,24.59L-12.291,24.714L-12.238,24.837L-12.184,24.96L-12.129,25.082L-12.073,25.204L-12.017,25.326L-11.96,25.447L-11.902,25.568L-11.843,25.689L-11.784,25.809L-11.724,25.928L-11.663,26.047L-11.602,26.166L-11.54,26.285L-11.477,26.403L-11.414,26.52L-11.35,26.637L-11.285,26.754L-11.22,26.87L-11.153,26.986L-11.087,27.101L-11.019,27.216L-10.951,27.331L-10.882,27.445L-10.813,27.558L-10.742,27.671L-10.672,27.784L-10.6,27.896L-10.528,28.008L-10.455,28.119L-10.382,28.23L-10.307,28.341L-10.233,28.451L-10.157,28.56L-10.081,28.669L-10.005,28.777L-9.927,28.885L-9.849,28.993L-9.771,29.1L-9.692,29.207L-9.612,29.313L-9.531,29.418L-9.45,29.523L-9.368,29.628L-9.286,29.732L-9.203,29.835L-9.12,29.938L-9.036,30.041L-8.951,30.143L-8.866,30.244L-8.78,30.345L-8.693,30.446L-8.606,30.546L-8.518,30.645L-8.43,30.744L-8.341,30.842L-8.252,30.94L-8.162,31.038L-8.071,31.134L-7.98,31.23L-7.888,31.326L-7.796,31.421L-7.703,31.516L-7.61,31.61L-7.516,31.703L-7.421,31.796L-7.326,31.888L-7.23,31.98L-7.134,32.071L-7.038,32.162L-6.94,32.252L-6.842,32.341L-6.744,32.43L-6.645,32.518L-6.546,32.606L-6.446,32.693L-6.345,32.78L-6.244,32.866L-6.143,32.951L-6.041,33.036L-5.938,33.12L-5.835,33.203L-5.732,33.286L-5.628,33.368L-5.523,33.45L-5.418,33.531L-5.313,33.612L-5.207,33.692L-5.1,33.771L-4.993,33.849L-4.885,33.927L-4.777,34.005L-4.669,34.081L-4.56,34.157L-4.451,34.233L-4.341,34.307L-4.23,34.382L-4.119,34.455L-4.008,34.528L-3.896,34.6L-3.784,34.672L-3.671,34.742L-3.558,34.813L-3.445,34.882L-3.331,34.951L-3.216,35.019L-3.101,35.087L-2.986,35.153L-2.87,35.22L-2.754,35.285L-2.637,35.35L-2.52,35.414L-2.403,35.477L-2.285,35.54L-2.166,35.602L-2.047,35.663L-1.928,35.724L-1.809,35.784L-1.689,35.843L-1.568,35.902L-1.447,35.96L-1.326,36.017L-1.204,36.073L-1.082,36.129L-0.96,36.184L-0.837,36.238L-0.714,36.291L-0.59,36.344L-0.466,36.396L-0.342,36.447L-0.217,36.498L-0.092,36.548L0.033,36.597L0.159,36.645L0.285,36.693L0.412,36.74L0.539,36.786L0.666,36.831L0.794,36.876L0.922,36.919L1.05,36.962L1.179,37.005L1.308,37.046L1.437,37.087L1.567,37.127L1.697,37.166L1.827,37.204L1.958,37.242L2.089,37.279L2.22,37.315L2.352,37.35L2.484,37.384L2.617,37.418L2.749,37.451L2.882,37.483L3.016,37.514L3.149,37.545L3.283,37.574L3.417,37.603L3.552,37.631L3.687,37.658L3.822,37.685L3.957,37.71L4.093,37.735L4.229,37.759L4.365,37.782L4.502,37.804L4.638,37.825L4.776,37.846L4.913,37.866L5.051,37.884L5.188,37.902L5.327,37.92L5.465,37.936L5.604,37.951L5.743,37.966L5.882,37.98L6.022,37.992L6.161,38.004L6.301,38.016L6.442,38.026L6.582,38.035L6.723,38.044L6.864,38.051L7.005,38.058L7.146,38.064L7.288,38.069L7.43,38.073L7.572,38.076L7.715,38.078L7.857,38.08L8,38.08L8.143,38.08L8.285,38.078L8.428,38.076L8.57,38.073L8.712,38.069L8.854,38.064L8.995,38.058L9.136,38.051L9.277,38.044L9.418,38.035L9.558,38.026L9.699,38.016L9.839,38.004L9.978,37.992L10.118,37.98L10.257,37.966L10.396,37.951L10.535,37.936L10.673,37.92L10.812,37.902L10.949,37.884L11.087,37.866L11.224,37.846L11.362,37.825L11.498,37.804L11.635,37.782L11.771,37.759L11.907,37.735L12.043,37.71L12.178,37.685L12.313,37.658L12.448,37.631L12.583,37.603L12.717,37.574L12.851,37.545L12.984,37.514L13.118,37.483L13.251,37.451L13.383,37.418L13.516,37.384L13.648,37.35L13.78,37.315L13.911,37.279L14.042,37.242L14.173,37.204L14.303,37.166L14.433,37.127L14.563,37.087L14.692,37.046L14.821,37.005L14.95,36.962L15.078,36.919L15.206,36.876L15.334,36.831L15.461,36.786L15.588,36.74L15.715,36.693L15.841,36.645L15.967,36.597L16.092,36.548L16.217,36.498L16.342,36.447L16.466,36.396L16.59,36.344L16.714,36.291L16.837,36.238L16.96,36.184L17.082,36.129L17.204,36.073L17.326,36.017L17.447,35.96L17.568,35.902L17.689,35.843L17.809,35.784L17.928,35.724L18.047,35.663L18.166,35.602L18.285,35.54L18.403,35.477L18.52,35.414L18.637,35.35L18.754,35.285L18.87,35.22L18.986,35.153L19.101,35.087L19.216,35.019L19.331,34.951L19.445,34.882L19.558,34.813L19.671,34.742L19.784,34.672L19.896,34.6L20.008,34.528L20.119,34.455L20.23,34.382L20.341,34.307L20.451,34.233L20.56,34.157L20.669,34.081L20.777,34.005L20.885,33.927L20.993,33.849L21.1,33.771L21.207,33.692L21.313,33.612L21.418,33.531L21.523,33.45L21.628,33.368L21.732,33.286L21.835,33.203L21.938,33.12L22.041,33.036L22.143,32.951L22.244,32.866L22.345,32.78L22.446,32.693L22.546,32.606L22.645,32.518L22.744,32.43L22.842,32.341L22.94,32.252L23.038,32.162L23.134,32.071L23.23,31.98L23.326,31.888L23.421,31.796L23.516,31.703L23.61,31.61L23.703,31.516L23.796,31.421L23.888,31.326L23.98,31.23L24.071,31.134L24.162,31.038L24.252,30.94L24.341,30.842L24.43,30.744L24.518,30.645L24.606,30.546L24.693,30.446L24.78,30.345L24.866,30.244L24.951,30.143L25.036,30.041L25.12,29.938L25.203,29.835L25.286,29.732L25.368,29.628L25.45,29.523L25.531,29.418L25.612,29.313L25.692,29.207L25.771,29.1L25.849,28.993L25.927,28.885L26.005,28.777L26.081,28.669L26.157,28.56L26.233,28.451L26.307,28.341L26.382,28.23L26.455,28.119L26.528,28.008L26.6,27.896L26.672,27.784L26.742,27.671L26.813,27.558L26.882,27.445L26.951,27.331L27.019,27.216L27.087,27.101L27.153,26.986L27.22,26.87L27.285,26.754L27.35,26.637L27.414,26.52L27.477,26.403L27.54,26.285L27.602,26.166L27.663,26.047L27.724,25.928L27.784,25.809L27.843,25.689L27.902,25.568L27.96,25.447L28.017,25.326L28.073,25.204L28.129,25.082L28.184,24.96L28.238,24.837L28.291,24.714L28.344,24.59L28.396,24.466L28.447,24.342L28.498,24.217L28.548,24.092L28.597,23.967L28.645,23.841L28.693,23.715L28.74,23.588L28.786,23.461L28.831,23.334L28.876,23.206L28.919,23.078L28.962,22.95L29.005,22.821L29.046,22.692L29.087,22.563L29.127,22.433L29.166,22.303L29.204,22.173L29.242,22.042L29.279,21.911L29.315,21.78L29.35,21.648L29.384,21.516L29.418,21.383L29.451,21.251L29.483,21.118L29.514,20.984L29.545,20.851L29.574,20.717L29.603,20.583L29.631,20.448L29.658,20.313L29.685,20.178L29.71,20.043L29.735,19.907L29.759,19.771L29.782,19.635L29.804,19.498L29.825,19.362L29.846,19.224L29.866,19.087L29.884,18.949L29.902,18.812L29.92,18.673L29.936,18.535L29.951,18.396L29.966,18.257L29.98,18.118L29.992,17.978L30.004,17.839L30.016,17.699L30.026,17.558L30.035,17.418L30.044,17.277L30.051,17.136L30.058,16.995L30.064,16.854L30.069,16.712L30.073,16.57L30.076,16.428L30.078,16.285L30.08,16.143L30.08,16L30.08,15.857L30.078,15.715L30.076,15.572L30.073,15.43L30.069,15.288L30.064,15.146L30.058,15.005L30.051,14.864L30.044,14.723L30.035,14.582L30.026,14.442L30.016,14.301L30.004,14.161L29.992,14.022L29.98,13.882L29.966,13.743L29.951,13.604L29.936,13.465L29.92,13.327L29.902,13.188L29.884,13.051L29.866,12.913L29.846,12.776L29.825,12.638L29.804,12.502L29.782,12.365L29.759,12.229L29.735,12.093L29.71,11.957L29.685,11.822L29.658,11.687L29.631,11.552L29.603,11.417L29.574,11.283L29.545,11.149L29.514,11.016L29.483,10.882L29.451,10.749L29.418,10.617L29.384,10.484L29.35,10.352L29.315,10.22L29.279,10.089L29.242,9.958L29.204,9.827L29.166,9.697L29.127,9.567L29.087,9.437L29.046,9.308L29.005,9.179L28.962,9.05L28.919,8.922L28.876,8.794L28.831,8.666L28.786,8.539L28.74,8.412L28.693,8.285L28.645,8.159L28.597,8.033L28.548,7.908L28.498,7.783L28.447,7.658L28.396,7.534L28.344,7.41L28.291,7.286L28.238,7.163L28.184,7.04L28.129,6.918L28.073,6.796L28.017,6.674L27.96,6.553L27.902,6.432L27.843,6.311L27.784,6.191L27.724,6.072L27.663,5.953L27.602,5.834L27.54,5.715L27.477,5.597L27.414,5.48L27.35,5.363L27.285,5.246L27.22,5.13L27.153,5.014L27.087,4.899L27.019,4.784L26.951,4.669L26.882,4.555L26.813,4.442L26.742,4.329L26.672,4.216L26.6,4.104L26.528,3.992L26.455,3.881L26.382,3.77L26.307,3.659L26.233,3.549L26.157,3.44L26.081,3.331L26.005,3.223L25.927,3.115L25.849,3.007L25.771,2.9L25.692,2.793L25.612,2.687L25.531,2.582L25.45,2.477L25.368,2.372L25.286,2.268L25.203,2.165L25.12,2.062L25.036,1.959L24.951,1.857L24.866,1.756L24.78,1.655L24.693,1.554L24.606,1.454L24.518,1.355L24.43,1.256L24.341,1.158L24.252,1.06L24.162,0.962L24.071,0.866L23.98,0.77L23.888,0.674L23.796,0.579L23.703,0.484L23.61,0.39L23.516,0.297L23.421,0.204L23.326,0.112L23.23,0.02L23.134,-0.071L23.038,-0.162L22.94,-0.252L22.842,-0.341L22.744,-0.43L22.645,-0.518L22.546,-0.606L22.446,-0.693L22.345,-0.78L22.244,-0.866L22.143,-0.951L22.041,-1.036L21.938,-1.12L21.835,-1.203L21.732,-1.286L21.628,-1.368L21.523,-1.45L21.418,-1.531L21.313,-1.612L21.207,-1.692L21.1,-1.771L20.993,-1.849L20.885,-1.927L20.777,-2.005L20.669,-2.081L20.56,-2.157L20.451,-2.233L20.341,-2.307L20.23,-2.382L20.119,-2.455L20.008,-2.528L19.896,-2.6L19.784,-2.672L19.671,-2.742L19.558,-2.813L19.445,-2.882L19.331,-2.951L19.216,-3.019L19.101,-3.087L18.986,-3.153L18.87,-3.22L18.754,-3.285L18.637,-3.35L18.52,-3.414L18.403,-3.477L18.285,-3.54L18.166,-3.602L18.047,-3.663L17.928,-3.724L17.809,-3.784L17.689,-3.843L17.568,-3.902L17.447,-3.96L17.326,-4.017L17.204,-4.073L17.082,-4.129L16.96,-4.184L16.837,-4.238L16.714,-4.291L16.59,-4.344L16.466,-4.396L16.342,-4.447L16.217,-4.498L16.092,-4.548L15.967,-4.597L15.841,-4.645L15.715,-4.693L15.588,-4.74L15.461,-4.786L15.334,-4.831L15.206,-4.876L15.078,-4.919L14.95,-4.962L14.821,-5.005L14.692,-5.046L14.563,-5.087L14.433,-5.127L14.303,-5.166L14.173,-5.204L14.042,-5.242L13.911,-5.279L13.78,-5.315L13.648,-5.35L13.516,-5.384L13.383,-5.418L13.251,-5.451L13.118,-5.483L12.984,-5.514L12.851,-5.545L12.717,-5.574L12.583,-5.603L12.448,-5.631L12.313,-5.658L12.178,-5.685L12.043,-5.71L11.907,-5.735L11.771,-5.759L11.635,-5.782L11.498,-5.804L11.362,-5.825L11.224,-5.846L11.087,-5.866L10.949,-5.884L10.812,-5.902L10.673,-5.92L10.535,-5.936L10.396,-5.951L10.257,-5.966L10.118,-5.98L9.978,-5.992L9.839,-6.004L9.699,-6.016L9.558,-6.026L9.418,-6.035L9.277,-6.044L9.136,-6.051L8.995,-6.058L8.854,-6.064L8.712,-6.069L8.57,-6.073L8.428,-6.076L8.285,-6.078L8.143,-6.08L8,-6.08L7.857,-6.08Z" style="fill:white;"/>
    </g>
    <g transform="matrix(1,0,0,1,17,9)">
        <circle cx="8" cy="16" r="23" style="fill:white;"/>
        <path d="M8.149,-7L8.297,-6.998L8.445,-6.996L8.593,-6.992L8.741,-6.988L8.889,-6.983L9.036,-6.977L9.183,-6.97L9.33,-6.962L9.476,-6.953L9.622,-6.944L9.769,-6.933L9.914,-6.921L10.06,-6.909L10.205,-6.895L10.35,-6.881L10.495,-6.866L10.639,-6.85L10.784,-6.833L10.928,-6.815L11.071,-6.796L11.215,-6.777L11.358,-6.756L11.501,-6.735L11.643,-6.713L11.786,-6.689L11.927,-6.665L12.069,-6.64L12.211,-6.615L12.352,-6.588L12.492,-6.561L12.633,-6.532L12.773,-6.503L12.913,-6.473L13.052,-6.442L13.192,-6.411L13.33,-6.378L13.469,-6.345L13.607,-6.31L13.745,-6.275L13.883,-6.239L14.02,-6.203L14.157,-6.165L14.294,-6.127L14.43,-6.088L14.566,-6.048L14.701,-6.007L14.836,-5.965L14.971,-5.923L15.106,-5.88L15.24,-5.836L15.373,-5.791L15.507,-5.745L15.64,-5.699L15.773,-5.651L15.905,-5.603L16.037,-5.555L16.168,-5.505L16.299,-5.455L16.43,-5.404L16.56,-5.352L16.69,-5.299L16.82,-5.246L16.949,-5.191L17.078,-5.136L17.206,-5.081L17.334,-5.024L17.462,-4.967L17.589,-4.909L17.716,-4.85L17.842,-4.791L17.968,-4.73L18.093,-4.67L18.218,-4.608L18.343,-4.545L18.467,-4.482L18.591,-4.418L18.714,-4.354L18.837,-4.288L18.959,-4.222L19.081,-4.156L19.203,-4.088L19.324,-4.02L19.445,-3.951L19.565,-3.881L19.685,-3.811L19.804,-3.74L19.923,-3.668L20.041,-3.596L20.159,-3.523L20.276,-3.449L20.393,-3.374L20.509,-3.299L20.625,-3.223L20.741,-3.147L20.856,-3.07L20.97,-2.992L21.084,-2.913L21.198,-2.834L21.311,-2.754L21.423,-2.674L21.535,-2.593L21.647,-2.511L21.758,-2.428L21.868,-2.345L21.978,-2.261L22.087,-2.177L22.196,-2.092L22.305,-2.006L22.413,-1.92L22.52,-1.833L22.627,-1.745L22.733,-1.657L22.839,-1.568L22.944,-1.479L23.048,-1.389L23.152,-1.298L23.256,-1.207L23.359,-1.115L23.461,-1.022L23.563,-0.929L23.664,-0.835L23.765,-0.741L23.865,-0.646L23.965,-0.55L24.064,-0.454L24.162,-0.358L24.26,-0.26L24.358,-0.162L24.454,-0.064L24.55,0.035L24.646,0.135L24.741,0.235L24.835,0.336L24.929,0.437L25.022,0.539L25.115,0.641L25.207,0.744L25.298,0.848L25.389,0.952L25.479,1.056L25.568,1.161L25.657,1.267L25.745,1.373L25.833,1.48L25.92,1.587L26.006,1.695L26.092,1.804L26.177,1.913L26.261,2.022L26.345,2.132L26.428,2.242L26.511,2.353L26.593,2.465L26.674,2.577L26.754,2.689L26.834,2.802L26.913,2.916L26.992,3.03L27.07,3.144L27.147,3.259L27.223,3.375L27.299,3.491L27.374,3.607L27.449,3.724L27.523,3.841L27.596,3.959L27.668,4.077L27.74,4.196L27.811,4.315L27.881,4.435L27.951,4.555L28.02,4.676L28.088,4.797L28.156,4.919L28.222,5.041L28.288,5.163L28.354,5.286L28.418,5.409L28.482,5.533L28.545,5.657L28.608,5.782L28.67,5.907L28.73,6.032L28.791,6.158L28.85,6.284L28.909,6.411L28.967,6.538L29.024,6.666L29.081,6.794L29.136,6.922L29.191,7.051L29.246,7.18L29.299,7.31L29.352,7.44L29.404,7.57L29.455,7.701L29.505,7.832L29.555,7.963L29.603,8.095L29.651,8.227L29.699,8.36L29.745,8.493L29.791,8.627L29.836,8.76L29.88,8.894L29.923,9.029L29.965,9.164L30.007,9.299L30.048,9.434L30.088,9.57L30.127,9.706L30.165,9.843L30.203,9.98L30.239,10.117L30.275,10.255L30.31,10.393L30.345,10.531L30.378,10.67L30.411,10.808L30.442,10.948L30.473,11.087L30.503,11.227L30.532,11.367L30.561,11.508L30.588,11.648L30.615,11.789L30.64,11.931L30.665,12.073L30.689,12.214L30.713,12.357L30.735,12.499L30.756,12.642L30.777,12.785L30.796,12.929L30.815,13.072L30.833,13.216L30.85,13.361L30.866,13.505L30.881,13.65L30.895,13.795L30.909,13.94L30.921,14.086L30.933,14.231L30.944,14.378L30.953,14.524L30.962,14.67L30.97,14.817L30.977,14.964L30.983,15.111L30.988,15.259L30.992,15.407L30.996,15.555L30.998,15.703L31,15.851L31,16L31,16.149L30.998,16.297L30.996,16.445L30.992,16.593L30.988,16.741L30.983,16.889L30.977,17.036L30.97,17.183L30.962,17.33L30.953,17.476L30.944,17.622L30.933,17.769L30.921,17.914L30.909,18.06L30.895,18.205L30.881,18.35L30.866,18.495L30.85,18.639L30.833,18.784L30.815,18.928L30.796,19.071L30.777,19.215L30.756,19.358L30.735,19.501L30.713,19.643L30.689,19.786L30.665,19.927L30.64,20.069L30.615,20.211L30.588,20.352L30.561,20.492L30.532,20.633L30.503,20.773L30.473,20.913L30.442,21.052L30.411,21.192L30.378,21.33L30.345,21.469L30.31,21.607L30.275,21.745L30.239,21.883L30.203,22.02L30.165,22.157L30.127,22.294L30.088,22.43L30.048,22.566L30.007,22.701L29.965,22.836L29.923,22.971L29.88,23.106L29.836,23.24L29.791,23.373L29.745,23.507L29.699,23.64L29.651,23.773L29.603,23.905L29.555,24.037L29.505,24.168L29.455,24.299L29.404,24.43L29.352,24.56L29.299,24.69L29.246,24.82L29.191,24.949L29.136,25.078L29.081,25.206L29.024,25.334L28.967,25.462L28.909,25.589L28.85,25.716L28.791,25.842L28.73,25.968L28.67,26.093L28.608,26.218L28.545,26.343L28.482,26.467L28.418,26.591L28.354,26.714L28.288,26.837L28.222,26.959L28.156,27.081L28.088,27.203L28.02,27.324L27.951,27.445L27.881,27.565L27.811,27.685L27.74,27.804L27.668,27.923L27.596,28.041L27.523,28.159L27.449,28.276L27.374,28.393L27.299,28.509L27.223,28.625L27.147,28.741L27.07,28.856L26.992,28.97L26.913,29.084L26.834,29.198L26.754,29.311L26.674,29.423L26.593,29.535L26.511,29.647L26.428,29.758L26.345,29.868L26.261,29.978L26.177,30.087L26.092,30.196L26.006,30.305L25.92,30.413L25.833,30.52L25.745,30.627L25.657,30.733L25.568,30.839L25.479,30.944L25.389,31.048L25.298,31.152L25.207,31.256L25.115,31.359L25.022,31.461L24.929,31.563L24.835,31.664L24.741,31.765L24.646,31.865L24.55,31.965L24.454,32.064L24.358,32.162L24.26,32.26L24.162,32.358L24.064,32.454L23.965,32.55L23.865,32.646L23.765,32.741L23.664,32.835L23.563,32.929L23.461,33.022L23.359,33.115L23.256,33.207L23.152,33.298L23.048,33.389L22.944,33.479L22.839,33.568L22.733,33.657L22.627,33.745L22.52,33.833L22.413,33.92L22.305,34.006L22.196,34.092L22.087,34.177L21.978,34.261L21.868,34.345L21.758,34.428L21.647,34.511L21.535,34.593L21.423,34.674L21.311,34.754L21.198,34.834L21.084,34.913L20.97,34.992L20.856,35.07L20.741,35.147L20.625,35.223L20.509,35.299L20.393,35.374L20.276,35.449L20.159,35.523L20.041,35.596L19.923,35.668L19.804,35.74L19.685,35.811L19.565,35.881L19.445,35.951L19.324,36.02L19.203,36.088L19.081,36.156L18.959,36.222L18.837,36.288L18.714,36.354L18.591,36.418L18.467,36.482L18.343,36.545L18.218,36.608L18.093,36.67L17.968,36.73L17.842,36.791L17.716,36.85L17.589,36.909L17.462,36.967L17.334,37.024L17.206,37.081L17.078,37.136L16.949,37.191L16.82,37.246L16.69,37.299L16.56,37.352L16.43,37.404L16.299,37.455L16.168,37.505L16.037,37.555L15.905,37.603L15.773,37.651L15.64,37.699L15.507,37.745L15.373,37.791L15.24,37.836L15.106,37.88L14.971,37.923L14.836,37.965L14.701,38.007L14.566,38.048L14.43,38.088L14.294,38.127L14.157,38.165L14.02,38.203L13.883,38.239L13.745,38.275L13.607,38.31L13.469,38.345L13.33,38.378L13.192,38.411L13.052,38.442L12.913,38.473L12.773,38.503L12.633,38.532L12.492,38.561L12.352,38.588L12.211,38.615L12.069,38.64L11.927,38.665L11.786,38.689L11.643,38.713L11.501,38.735L11.358,38.756L11.215,38.777L11.071,38.796L10.928,38.815L10.784,38.833L10.639,38.85L10.495,38.866L10.35,38.881L10.205,38.895L10.06,38.909L9.914,38.921L9.769,38.933L9.622,38.944L9.476,38.953L9.33,38.962L9.183,38.97L9.036,38.977L8.889,38.983L8.741,38.988L8.593,38.992L8.445,38.996L8.297,38.998L8.149,39L8,39L7.851,39L7.703,38.998L7.555,38.996L7.407,38.992L7.259,38.988L7.111,38.983L6.964,38.977L6.817,38.97L6.67,38.962L6.524,38.953L6.378,38.944L6.231,38.933L6.086,38.921L5.94,38.909L5.795,38.895L5.65,38.881L5.505,38.866L5.361,38.85L5.216,38.833L5.072,38.815L4.929,38.796L4.785,38.777L4.642,38.756L4.499,38.735L4.357,38.713L4.214,38.689L4.073,38.665L3.931,38.64L3.789,38.615L3.648,38.588L3.508,38.561L3.367,38.532L3.227,38.503L3.087,38.473L2.948,38.442L2.808,38.411L2.67,38.378L2.531,38.345L2.393,38.31L2.255,38.275L2.117,38.239L1.98,38.203L1.843,38.165L1.706,38.127L1.57,38.088L1.434,38.048L1.299,38.007L1.164,37.965L1.029,37.923L0.894,37.88L0.76,37.836L0.627,37.791L0.493,37.745L0.36,37.699L0.227,37.651L0.095,37.603L-0.037,37.555L-0.168,37.505L-0.299,37.455L-0.43,37.404L-0.56,37.352L-0.69,37.299L-0.82,37.246L-0.949,37.191L-1.078,37.136L-1.206,37.081L-1.334,37.024L-1.462,36.967L-1.589,36.909L-1.716,36.85L-1.842,36.791L-1.968,36.73L-2.093,36.67L-2.218,36.608L-2.343,36.545L-2.467,36.482L-2.591,36.418L-2.714,36.354L-2.837,36.288L-2.959,36.222L-3.081,36.156L-3.203,36.088L-3.324,36.02L-3.445,35.951L-3.565,35.881L-3.685,35.811L-3.804,35.74L-3.923,35.668L-4.041,35.596L-4.159,35.523L-4.276,35.449L-4.393,35.374L-4.509,35.299L-4.625,35.223L-4.741,35.147L-4.856,35.07L-4.97,34.992L-5.084,34.913L-5.198,34.834L-5.311,34.754L-5.423,34.674L-5.535,34.593L-5.647,34.511L-5.758,34.428L-5.868,34.345L-5.978,34.261L-6.087,34.177L-6.196,34.092L-6.305,34.006L-6.413,33.92L-6.52,33.833L-6.627,33.745L-6.733,33.657L-6.839,33.568L-6.944,33.479L-7.048,33.389L-7.152,33.298L-7.256,33.207L-7.359,33.115L-7.461,33.022L-7.563,32.929L-7.664,32.835L-7.765,32.741L-7.865,32.646L-7.965,32.55L-8.064,32.454L-8.162,32.358L-8.26,32.26L-8.358,32.162L-8.454,32.064L-8.55,31.965L-8.646,31.865L-8.741,31.765L-8.835,31.664L-8.929,31.563L-9.022,31.461L-9.115,31.359L-9.207,31.256L-9.298,31.152L-9.389,31.048L-9.479,30.944L-9.568,30.839L-9.657,30.733L-9.745,30.627L-9.833,30.52L-9.92,30.413L-10.006,30.305L-10.092,30.196L-10.177,30.087L-10.261,29.978L-10.345,29.868L-10.428,29.758L-10.511,29.647L-10.593,29.535L-10.674,29.423L-10.754,29.311L-10.834,29.198L-10.913,29.084L-10.992,28.97L-11.07,28.856L-11.147,28.741L-11.223,28.625L-11.299,28.509L-11.374,28.393L-11.449,28.276L-11.523,28.159L-11.596,28.041L-11.668,27.923L-11.74,27.804L-11.811,27.685L-11.881,27.565L-11.951,27.445L-12.02,27.324L-12.088,27.203L-12.156,27.081L-12.222,26.959L-12.288,26.837L-12.354,26.714L-12.418,26.591L-12.482,26.467L-12.545,26.343L-12.608,26.218L-12.67,26.093L-12.73,25.968L-12.791,25.842L-12.85,25.716L-12.909,25.589L-12.967,25.462L-13.024,25.334L-13.081,25.206L-13.136,25.078L-13.191,24.949L-13.246,24.82L-13.299,24.69L-13.352,24.56L-13.404,24.43L-13.455,24.299L-13.505,24.168L-13.555,24.037L-13.603,23.905L-13.651,23.773L-13.699,23.64L-13.745,23.507L-13.791,23.373L-13.836,23.24L-13.88,23.106L-13.923,22.971L-13.965,22.836L-14.007,22.701L-14.048,22.566L-14.088,22.43L-14.127,22.294L-14.165,22.157L-14.203,22.02L-14.239,21.883L-14.275,21.745L-14.31,21.607L-14.345,21.469L-14.378,21.33L-14.411,21.192L-14.442,21.052L-14.473,20.913L-14.503,20.773L-14.532,20.633L-14.561,20.492L-14.588,20.352L-14.615,20.211L-14.64,20.069L-14.665,19.927L-14.689,19.786L-14.713,19.643L-14.735,19.501L-14.756,19.358L-14.777,19.215L-14.796,19.071L-14.815,18.928L-14.833,18.784L-14.85,18.639L-14.866,18.495L-14.881,18.35L-14.895,18.205L-14.909,18.06L-14.921,17.914L-14.933,17.769L-14.944,17.622L-14.953,17.476L-14.962,17.33L-14.97,17.183L-14.977,17.036L-14.983,16.889L-14.988,16.741L-14.992,16.593L-14.996,16.445L-14.998,16.297L-15,16.149L-15,16L-15,15.851L-14.998,15.703L-14.996,15.555L-14.992,15.407L-14.988,15.259L-14.983,15.111L-14.977,14.964L-14.97,14.817L-14.962,14.67L-14.953,14.524L-14.944,14.378L-14.933,14.231L-14.921,14.086L-14.909,13.94L-14.895,13.795L-14.881,13.65L-14.866,13.505L-14.85,13.361L-14.833,13.216L-14.815,13.072L-14.796,12.929L-14.777,12.785L-14.756,12.642L-14.735,12.499L-14.713,12.357L-14.689,12.214L-14.665,12.073L-14.64,11.931L-14.615,11.789L-14.588,11.648L-14.561,11.508L-14.532,11.367L-14.503,11.227L-14.473,11.087L-14.442,10.948L-14.411,10.808L-14.378,10.67L-14.345,10.531L-14.31,10.393L-14.275,10.255L-14.239,10.117L-14.203,9.98L-14.165,9.843L-14.127,9.706L-14.088,9.57L-14.048,9.434L-14.007,9.299L-13.965,9.164L-13.923,9.029L-13.88,8.894L-13.836,8.76L-13.791,8.627L-13.745,8.493L-13.699,8.36L-13.651,8.227L-13.603,8.095L-13.555,7.963L-13.505,7.832L-13.455,7.701L-13.404,7.57L-13.352,7.44L-13.299,7.31L-13.246,7.18L-13.191,7.051L-13.136,6.922L-13.081,6.794L-13.024,6.666L-12.967,6.538L-12.909,6.411L-12.85,6.284L-12.791,6.158L-12.73,6.032L-12.67,5.907L-12.608,5.782L-12.545,5.657L-12.482,5.533L-12.418,5.409L-12.354,5.286L-12.288,5.163L-12.222,5.041L-12.156,4.919L-12.088,4.797L-12.02,4.676L-11.951,4.555L-11.881,4.435L-11.811,4.315L-11.74,4.196L-11.668,4.077L-11.596,3.959L-11.523,3.841L-11.449,3.724L-11.374,3.607L-11.299,3.491L-11.223,3.375L-11.147,3.259L-11.07,3.144L-10.992,3.03L-10.913,2.916L-10.834,2.802L-10.754,2.689L-10.674,2.577L-10.593,2.465L-10.511,2.353L-10.428,2.242L-10.345,2.132L-10.261,2.022L-10.177,1.913L-10.092,1.804L-10.006,1.695L-9.92,1.587L-9.833,1.48L-9.745,1.373L-9.657,1.267L-9.568,1.161L-9.479,1.056L-9.389,0.952L-9.298,0.848L-9.207,0.744L-9.115,0.641L-9.022,0.539L-8.929,0.437L-8.835,0.336L-8.741,0.235L-8.646,0.135L-8.55,0.035L-8.454,-0.064L-8.358,-0.162L-8.26,-0.26L-8.162,-0.358L-8.064,-0.454L-7.965,-0.55L-7.865,-0.646L-7.765,-0.741L-7.664,-0.835L-7.563,-0.929L-7.461,-1.022L-7.359,-1.115L-7.256,-1.207L-7.152,-1.298L-7.048,-1.389L-6.944,-1.479L-6.839,-1.568L-6.733,-1.657L-6.627,-1.745L-6.52,-1.833L-6.413,-1.92L-6.305,-2.006L-6.196,-2.092L-6.087,-2.177L-5.978,-2.261L-5.868,-2.345L-5.758,-2.428L-5.647,-2.511L-5.535,-2.593L-5.423,-2.674L-5.311,-2.754L-5.198,-2.834L-5.084,-2.913L-4.97,-2.992L-4.856,-3.07L-4.741,-3.147L-4.625,-3.223L-4.509,-3.299L-4.393,-3.374L-4.276,-3.449L-4.159,-3.523L-4.041,-3.596L-3.923,-3.668L-3.804,-3.74L-3.685,-3.811L-3.565,-3.881L-3.445,-3.951L-3.324,-4.02L-3.203,-4.088L-3.081,-4.156L-2.959,-4.222L-2.837,-4.288L-2.714,-4.354L-2.591,-4.418L-2.467,-4.482L-2.343,-4.545L-2.218,-4.608L-2.093,-4.67L-1.968,-4.73L-1.842,-4.791L-1.716,-4.85L-1.589,-4.909L-1.462,-4.967L-1.334,-5.024L-1.206,-5.081L-1.078,-5.136L-0.949,-5.191L-0.82,-5.246L-0.69,-5.299L-0.56,-5.352L-0.43,-5.404L-0.299,-5.455L-0.168,-5.505L-0.037,-5.555L0.095,-5.603L0.227,-5.651L0.36,-5.699L0.493,-5.745L0.627,-5.791L0.76,-5.836L0.894,-5.88L1.029,-5.923L1.164,-5.965L1.299,-6.007L1.434,-6.048L1.57,-6.088L1.706,-6.127L1.843,-6.165L1.98,-6.203L2.117,-6.239L2.255,-6.275L2.393,-6.31L2.531,-6.345L2.67,-6.378L2.808,-6.411L2.948,-6.442L3.087,-6.473L3.227,-6.503L3.367,-6.532L3.508,-6.561L3.648,-6.588L3.789,-6.615L3.931,-6.64L4.073,-6.665L4.214,-6.689L4.357,-6.713L4.499,-6.735L4.642,-6.756L4.785,-6.777L4.929,-6.796L5.072,-6.815L5.216,-6.833L5.361,-6.85L5.505,-6.866L5.65,-6.881L5.795,-6.895L5.94,-6.909L6.086,-6.921L6.231,-6.933L6.378,-6.944L6.524,-6.953L6.67,-6.962L6.817,-6.97L6.964,-6.977L7.111,-6.983L7.259,-6.988L7.407,-6.992L7.555,-6.996L7.703,-6.998L7.851,-7L8,-7L8.149,-7ZM7.857,-6.08L7.715,-6.078L7.572,-6.076L7.43,-6.073L7.288,-6.069L7.146,-6.064L7.005,-6.058L6.864,-6.051L6.723,-6.044L6.582,-6.035L6.442,-6.026L6.301,-6.016L6.161,-6.004L6.022,-5.992L5.882,-5.98L5.743,-5.966L5.604,-5.951L5.465,-5.936L5.327,-5.92L5.188,-5.902L5.051,-5.884L4.913,-5.866L4.776,-5.846L4.638,-5.825L4.502,-5.804L4.365,-5.782L4.229,-5.759L4.093,-5.735L3.957,-5.71L3.822,-5.685L3.687,-5.658L3.552,-5.631L3.417,-5.603L3.283,-5.574L3.149,-5.545L3.016,-5.514L2.882,-5.483L2.749,-5.451L2.617,-5.418L2.484,-5.384L2.352,-5.35L2.22,-5.315L2.089,-5.279L1.958,-5.242L1.827,-5.204L1.697,-5.166L1.567,-5.127L1.437,-5.087L1.308,-5.046L1.179,-5.005L1.05,-4.962L0.922,-4.919L0.794,-4.876L0.666,-4.831L0.539,-4.786L0.412,-4.74L0.285,-4.693L0.159,-4.645L0.033,-4.597L-0.092,-4.548L-0.217,-4.498L-0.342,-4.447L-0.466,-4.396L-0.59,-4.344L-0.714,-4.291L-0.837,-4.238L-0.96,-4.184L-1.082,-4.129L-1.204,-4.073L-1.326,-4.017L-1.447,-3.96L-1.568,-3.902L-1.689,-3.843L-1.809,-3.784L-1.928,-3.724L-2.047,-3.663L-2.166,-3.602L-2.285,-3.54L-2.403,-3.477L-2.52,-3.414L-2.637,-3.35L-2.754,-3.285L-2.87,-3.22L-2.986,-3.153L-3.101,-3.087L-3.216,-3.019L-3.331,-2.951L-3.445,-2.882L-3.558,-2.813L-3.671,-2.742L-3.784,-2.672L-3.896,-2.6L-4.008,-2.528L-4.119,-2.455L-4.23,-2.382L-4.341,-2.307L-4.451,-2.233L-4.56,-2.157L-4.669,-2.081L-4.777,-2.005L-4.885,-1.927L-4.993,-1.849L-5.1,-1.771L-5.207,-1.692L-5.313,-1.612L-5.418,-1.531L-5.523,-1.45L-5.628,-1.368L-5.732,-1.286L-5.835,-1.203L-5.938,-1.12L-6.041,-1.036L-6.143,-0.951L-6.244,-0.866L-6.345,-0.78L-6.446,-0.693L-6.546,-0.606L-6.645,-0.518L-6.744,-0.43L-6.842,-0.341L-6.94,-0.252L-7.038,-0.162L-7.134,-0.071L-7.23,0.02L-7.326,0.112L-7.421,0.204L-7.516,0.297L-7.61,0.39L-7.703,0.484L-7.796,0.579L-7.888,0.674L-7.98,0.77L-8.071,0.866L-8.162,0.962L-8.252,1.06L-8.341,1.158L-8.43,1.256L-8.518,1.355L-8.606,1.454L-8.693,1.554L-8.78,1.655L-8.866,1.756L-8.951,1.857L-9.036,1.959L-9.12,2.062L-9.203,2.165L-9.286,2.268L-9.368,2.372L-9.45,2.477L-9.531,2.582L-9.612,2.687L-9.692,2.793L-9.771,2.9L-9.849,3.007L-9.927,3.115L-10.005,3.223L-10.081,3.331L-10.157,3.44L-10.233,3.549L-10.307,3.659L-10.382,3.77L-10.455,3.881L-10.528,3.992L-10.6,4.104L-10.672,4.216L-10.742,4.329L-10.813,4.442L-10.882,4.555L-10.951,4.669L-11.019,4.784L-11.087,4.899L-11.153,5.014L-11.22,5.13L-11.285,5.246L-11.35,5.363L-11.414,5.48L-11.477,5.597L-11.54,5.715L-11.602,5.834L-11.663,5.953L-11.724,6.072L-11.784,6.191L-11.843,6.311L-11.902,6.432L-11.96,6.553L-12.017,6.674L-12.073,6.796L-12.129,6.918L-12.184,7.04L-12.238,7.163L-12.291,7.286L-12.344,7.41L-12.396,7.534L-12.447,7.658L-12.498,7.783L-12.548,7.908L-12.597,8.033L-12.645,8.159L-12.693,8.285L-12.74,8.412L-12.786,8.539L-12.831,8.666L-12.876,8.794L-12.919,8.922L-12.962,9.05L-13.005,9.179L-13.046,9.308L-13.087,9.437L-13.127,9.567L-13.166,9.697L-13.204,9.827L-13.242,9.958L-13.279,10.089L-13.315,10.22L-13.35,10.352L-13.384,10.484L-13.418,10.617L-13.451,10.749L-13.483,10.882L-13.514,11.016L-13.545,11.149L-13.574,11.283L-13.603,11.417L-13.631,11.552L-13.658,11.687L-13.685,11.822L-13.71,11.957L-13.735,12.093L-13.759,12.229L-13.782,12.365L-13.804,12.502L-13.825,12.638L-13.846,12.776L-13.866,12.913L-13.884,13.051L-13.902,13.188L-13.92,13.327L-13.936,13.465L-13.951,13.604L-13.966,13.743L-13.98,13.882L-13.992,14.022L-14.004,14.161L-14.016,14.301L-14.026,14.442L-14.035,14.582L-14.044,14.723L-14.051,14.864L-14.058,15.005L-14.064,15.146L-14.069,15.288L-14.073,15.43L-14.076,15.572L-14.078,15.715L-14.08,15.857L-14.08,16L-14.08,16.143L-14.078,16.285L-14.076,16.428L-14.073,16.57L-14.069,16.712L-14.064,16.854L-14.058,16.995L-14.051,17.136L-14.044,17.277L-14.035,17.418L-14.026,17.558L-14.016,17.699L-14.004,17.839L-13.992,17.978L-13.98,18.118L-13.966,18.257L-13.951,18.396L-13.936,18.535L-13.92,18.673L-13.902,18.812L-13.884,18.949L-13.866,19.087L-13.846,19.224L-13.825,19.362L-13.804,19.498L-13.782,19.635L-13.759,19.771L-13.735,19.907L-13.71,20.043L-13.685,20.178L-13.658,20.313L-13.631,20.448L-13.603,20.583L-13.574,20.717L-13.545,20.851L-13.514,20.984L-13.483,21.118L-13.451,21.251L-13.418,21.383L-13.384,21.516L-13.35,21.648L-13.315,21.78L-13.279,21.911L-13.242,22.042L-13.204,22.173L-13.166,22.303L-13.127,22.433L-13.087,22.563L-13.046,22.692L-13.005,22.821L-12.962,22.95L-12.919,23.078L-12.876,23.206L-12.831,23.334L-12.786,23.461L-12.74,23.588L-12.693,23.715L-12.645,23.841L-12.597,23.967L-12.548,24.092L-12.498,24.217L-12.447,24.342L-12.396,24.466L-12.344,24.59L-12.291,24.714L-12.238,24.837L-12.184,24.96L-12.129,25.082L-12.073,25.204L-12.017,25.326L-11.96,25.447L-11.902,25.568L-11.843,25.689L-11.784,25.809L-11.724,25.928L-11.663,26.047L-11.602,26.166L-11.54,26.285L-11.477,26.403L-11.414,26.52L-11.35,26.637L-11.285,26.754L-11.22,26.87L-11.153,26.986L-11.087,27.101L-11.019,27.216L-10.951,27.331L-10.882,27.445L-10.813,27.558L-10.742,27.671L-10.672,27.784L-10.6,27.896L-10.528,28.008L-10.455,28.119L-10.382,28.23L-10.307,28.341L-10.233,28.451L-10.157,28.56L-10.081,28.669L-10.005,28.777L-9.927,28.885L-9.849,28.993L-9.771,29.1L-9.692,29.207L-9.612,29.313L-9.531,29.418L-9.45,29.523L-9.368,29.628L-9.286,29.732L-9.203,29.835L-9.12,29.938L-9.036,30.041L-8.951,30.143L-8.866,30.244L-8.78,30.345L-8.693,30.446L-8.606,30.546L-8.518,30.645L-8.43,30.744L-8.341,30.842L-8.252,30.94L-8.162,31.038L-8.071,31.134L-7.98,31.23L-7.888,31.326L-7.796,31.421L-7.703,31.516L-7.61,31.61L-7.516,31.703L-7.421,31.796L-7.326,31.888L-7.23,31.98L-7.134,32.071L-7.038,32.162L-6.94,32.252L-6.842,32.341L-6.744,32.43L-6.645,32.518L-6.546,32.606L-6.446,32.693L-6.345,32.78L-6.244,32.866L-6.143,32.951L-6.041,33.036L-5.938,33.12L-5.835,33.203L-5.732,33.286L-5.628,33.368L-5.523,33.45L-5.418,33.531L-5.313,33.612L-5.207,33.692L-5.1,33.771L-4.993,33.849L-4.885,33.927L-4.777,34.005L-4.669,34.081L-4.56,34.157L-4.451,34.233L-4.341,34.307L-4.23,34.382L-4.119,34.455L-4.008,34.528L-3.896,34.6L-3.784,34.672L-3.671,34.742L-3.558,34.813L-3.445,34.882L-3.331,34.951L-3.216,35.019L-3.101,35.087L-2.986,35.153L-2.87,35.22L-2.754,35.285L-2.637,35.35L-2.52,35.414L-2.403,35.477L-2.285,35.54L-2.166,35.602L-2.047,35.663L-1.928,35.724L-1.809,35.784L-1.689,35.843L-1.568,35.902L-1.447,35.96L-1.326,36.017L-1.204,36.073L-1.082,36.129L-0.96,36.184L-0.837,36.238L-0.714,36.291L-0.59,36.344L-0.466,36.396L-0.342,36.447L-0.217,36.498L-0.092,36.548L0.033,36.597L0.159,36.645L0.285,36.693L0.412,36.74L0.539,36.786L0.666,36.831L0.794,36.876L0.922,36.919L1.05,36.962L1.179,37.005L1.308,37.046L1.437,37.087L1.567,37.127L1.697,37.166L1.827,37.204L1.958,37.242L2.089,37.279L2.221,37.315L2.352,37.35L2.484,37.384L2.617,37.418L2.749,37.451L2.882,37.483L3.016,37.514L3.149,37.545L3.283,37.574L3.417,37.603L3.552,37.631L3.687,37.658L3.822,37.685L3.957,37.71L4.093,37.735L4.229,37.759L4.365,37.782L4.502,37.804L4.638,37.825L4.776,37.846L4.913,37.866L5.051,37.884L5.188,37.902L5.327,37.92L5.465,37.936L5.604,37.951L5.743,37.966L5.882,37.98L6.022,37.992L6.161,38.004L6.301,38.016L6.442,38.026L6.582,38.035L6.723,38.044L6.864,38.051L7.005,38.058L7.146,38.064L7.288,38.069L7.43,38.073L7.572,38.076L7.715,38.078L7.857,38.08L8,38.08L8.143,38.08L8.285,38.078L8.428,38.076L8.57,38.073L8.712,38.069L8.854,38.064L8.995,38.058L9.136,38.051L9.277,38.044L9.418,38.035L9.558,38.026L9.699,38.016L9.839,38.004L9.978,37.992L10.118,37.98L10.257,37.966L10.396,37.951L10.535,37.936L10.673,37.92L10.812,37.902L10.949,37.884L11.087,37.866L11.224,37.846L11.362,37.825L11.498,37.804L11.635,37.782L11.771,37.759L11.907,37.735L12.043,37.71L12.178,37.685L12.313,37.658L12.448,37.631L12.583,37.603L12.717,37.574L12.851,37.545L12.984,37.514L13.118,37.483L13.251,37.451L13.383,37.418L13.516,37.384L13.648,37.35L13.78,37.315L13.911,37.279L14.042,37.242L14.173,37.204L14.303,37.166L14.433,37.127L14.563,37.087L14.692,37.046L14.821,37.005L14.95,36.962L15.078,36.919L15.206,36.876L15.334,36.831L15.461,36.786L15.588,36.74L15.715,36.693L15.841,36.645L15.967,36.597L16.092,36.548L16.217,36.498L16.342,36.447L16.466,36.396L16.59,36.344L16.714,36.291L16.837,36.238L16.96,36.184L17.082,36.129L17.204,36.073L17.326,36.017L17.447,35.96L17.568,35.902L17.689,35.843L17.809,35.784L17.928,35.724L18.047,35.663L18.166,35.602L18.285,35.54L18.403,35.477L18.52,35.414L18.637,35.35L18.754,35.285L18.87,35.22L18.986,35.153L19.101,35.087L19.216,35.019L19.331,34.951L19.445,34.882L19.558,34.813L19.671,34.742L19.784,34.672L19.896,34.6L20.008,34.528L20.119,34.455L20.23,34.382L20.341,34.307L20.451,34.233L20.56,34.157L20.669,34.081L20.777,34.005L20.885,33.927L20.993,33.849L21.1,33.771L21.207,33.692L21.313,33.612L21.418,33.531L21.523,33.45L21.628,33.368L21.732,33.286L21.835,33.203L21.938,33.12L22.041,33.036L22.143,32.951L22.244,32.866L22.345,32.78L22.446,32.693L22.546,32.606L22.645,32.518L22.744,32.43L22.842,32.341L22.94,32.252L23.038,32.162L23.134,32.071L23.23,31.98L23.326,31.888L23.421,31.796L23.516,31.703L23.61,31.61L23.703,31.516L23.796,31.421L23.888,31.326L23.98,31.23L24.071,31.134L24.162,31.038L24.252,30.94L24.341,30.842L24.43,30.744L24.518,30.645L24.606,30.546L24.693,30.446L24.78,30.345L24.866,30.244L24.951,30.143L25.036,30.041L25.12,29.938L25.203,29.835L25.286,29.732L25.368,29.628L25.45,29.523L25.531,29.418L25.612,29.313L25.692,29.207L25.771,29.1L25.849,28.993L25.927,28.885L26.005,28.777L26.081,28.669L26.157,28.56L26.233,28.451L26.307,28.341L26.382,28.23L26.455,28.119L26.528,28.008L26.6,27.896L26.672,27.784L26.742,27.671L26.813,27.558L26.882,27.445L26.951,27.331L27.019,27.216L27.087,27.101L27.153,26.986L27.22,26.87L27.285,26.754L27.35,26.637L27.414,26.52L27.477,26.403L27.54,26.285L27.602,26.166L27.663,26.047L27.724,25.928L27.784,25.809L27.843,25.689L27.902,25.568L27.96,25.447L28.017,25.326L28.073,25.204L28.129,25.082L28.184,24.96L28.238,24.837L28.291,24.714L28.344,24.59L28.396,24.466L28.447,24.342L28.498,24.217L28.548,24.092L28.597,23.967L28.645,23.841L28.693,23.715L28.74,23.588L28.786,23.461L28.831,23.334L28.876,23.206L28.919,23.078L28.962,22.95L29.005,22.821L29.046,22.692L29.087,22.563L29.127,22.433L29.166,22.303L29.204,22.173L29.242,22.042L29.279,21.911L29.315,21.78L29.35,21.648L29.384,21.516L29.418,21.383L29.451,21.251L29.483,21.118L29.514,20.984L29.545,20.851L29.574,20.717L29.603,20.583L29.631,20.448L29.658,20.313L29.685,20.178L29.71,20.043L29.735,19.907L29.759,19.771L29.782,19.635L29.804,19.498L29.825,19.362L29.846,19.224L29.866,19.087L29.884,18.949L29.902,18.812L29.92,18.673L29.936,18.535L29.951,18.396L29.966,18.257L29.98,18.118L29.992,17.978L30.004,17.839L30.016,17.699L30.026,17.558L30.035,17.418L30.044,17.277L30.051,17.136L30.058,16.995L30.064,16.854L30.069,16.712L30.073,16.57L30.076,16.428L30.078,16.285L30.08,16.143L30.08,16L30.08,15.857L30.078,15.715L30.076,15.572L30.073,15.43L30.069,15.288L30.064,15.146L30.058,15.005L30.051,14.864L30.044,14.723L30.035,14.582L30.026,14.442L30.016,14.301L30.004,14.161L29.992,14.022L29.98,13.882L29.966,13.743L29.951,13.604L29.936,13.465L29.92,13.327L29.902,13.188L29.884,13.051L29.866,12.913L29.846,12.776L29.825,12.638L29.804,12.502L29.782,12.365L29.759,12.229L29.735,12.093L29.71,11.957L29.685,11.822L29.658,11.687L29.631,11.552L29.603,11.417L29.574,11.283L29.545,11.149L29.514,11.016L29.483,10.882L29.451,10.749L29.418,10.617L29.384,10.484L29.35,10.352L29.315,10.221L29.279,10.089L29.242,9.958L29.204,9.827L29.166,9.697L29.127,9.567L29.087,9.437L29.046,9.308L29.005,9.179L28.962,9.05L28.919,8.922L28.876,8.794L28.831,8.666L28.786,8.539L28.74,8.412L28.693,8.285L28.645,8.159L28.597,8.033L28.548,7.908L28.498,7.783L28.447,7.658L28.396,7.534L28.344,7.41L28.291,7.286L28.238,7.163L28.184,7.04L28.129,6.918L28.073,6.796L28.017,6.674L27.96,6.553L27.902,6.432L27.843,6.311L27.784,6.191L27.724,6.072L27.663,5.953L27.602,5.834L27.54,5.715L27.477,5.597L27.414,5.48L27.35,5.363L27.285,5.246L27.22,5.13L27.153,5.014L27.087,4.899L27.019,4.784L26.951,4.669L26.882,4.555L26.813,4.442L26.742,4.329L26.672,4.216L26.6,4.104L26.528,3.992L26.455,3.881L26.382,3.77L26.307,3.659L26.233,3.549L26.157,3.44L26.081,3.331L26.005,3.223L25.927,3.115L25.849,3.007L25.771,2.9L25.692,2.793L25.612,2.687L25.531,2.582L25.45,2.477L25.368,2.372L25.286,2.268L25.203,2.165L25.12,2.062L25.036,1.959L24.951,1.857L24.866,1.756L24.78,1.655L24.693,1.554L24.606,1.454L24.518,1.355L24.43,1.256L24.341,1.158L24.252,1.06L24.162,0.962L24.071,0.866L23.98,0.77L23.888,0.674L23.796,0.579L23.703,0.484L23.61,0.39L23.516,0.297L23.421,0.204L23.326,0.112L23.23,0.02L23.134,-0.071L23.038,-0.162L22.94,-0.252L22.842,-0.341L22.744,-0.43L22.645,-0.518L22.546,-0.606L22.446,-0.693L22.345,-0.78L22.244,-0.866L22.143,-0.951L22.041,-1.036L21.938,-1.12L21.835,-1.203L21.732,-1.286L21.628,-1.368L21.523,-1.45L21.418,-1.531L21.313,-1.612L21.207,-1.692L21.1,-1.771L20.993,-1.849L20.885,-1.927L20.777,-2.005L20.669,-2.081L20.56,-2.157L20.451,-2.233L20.341,-2.307L20.23,-2.382L20.119,-2.455L20.008,-2.528L19.896,-2.6L19.784,-2.672L19.671,-2.742L19.558,-2.813L19.445,-2.882L19.331,-2.951L19.216,-3.019L19.101,-3.087L18.986,-3.153L18.87,-3.22L18.754,-3.285L18.637,-3.35L18.52,-3.414L18.403,-3.477L18.285,-3.54L18.166,-3.602L18.047,-3.663L17.928,-3.724L17.809,-3.784L17.689,-3.843L17.568,-3.902L17.447,-3.96L17.326,-4.017L17.204,-4.073L17.082,-4.129L16.96,-4.184L16.837,-4.238L16.714,-4.291L16.59,-4.344L16.466,-4.396L16.342,-4.447L16.217,-4.498L16.092,-4.548L15.967,-4.597L15.841,-4.645L15.715,-4.693L15.588,-4.74L15.461,-4.786L15.334,-4.831L15.206,-4.876L15.078,-4.919L14.95,-4.962L14.821,-5.005L14.692,-5.046L14.563,-5.087L14.433,-5.127L14.303,-5.166L14.173,-5.204L14.042,-5.242L13.911,-5.279L13.78,-5.315L13.648,-5.35L13.516,-5.384L13.383,-5.418L13.251,-5.451L13.118,-5.483L12.984,-5.514L12.851,-5.545L12.717,-5.574L12.583,-5.603L12.448,-5.631L12.313,-5.658L12.178,-5.685L12.043,-5.71L11.907,-5.735L11.771,-5.759L11.635,-5.782L11.498,-5.804L11.362,-5.825L11.224,-5.846L11.087,-5.866L10.949,-5.884L10.812,-5.902L10.673,-5.92L10.535,-5.936L10.396,-5.951L10.257,-5.966L10.118,-5.98L9.978,-5.992L9.839,-6.004L9.699,-6.016L9.558,-6.026L9.418,-6.035L9.277,-6.044L9.136,-6.051L8.995,-6.058L8.854,-6.064L8.712,-6.069L8.57,-6.073L8.428,-6.076L8.285,-6.078L8.143,-6.08L8,-6.08L7.857,-6.08Z" style="fill:white;"/>
    </g>
</svg>
