<?xml version="1.0" encoding="UTF-8" standalone="no"?>
<!DOCTYPE svg PUBLIC "-//W3C//DTD SVG 1.1//EN" "http://www.w3.org/Graphics/SVG/1.1/DTD/svg11.dtd">
<svg width="100%" height="100%" viewBox="0 0 473 473" version="1.1" xmlns="http://www.w3.org/2000/svg" xmlns:xlink="http://www.w3.org/1999/xlink" xml:space="preserve" xmlns:serif="http://www.serif.com/" style="fill-rule:evenodd;clip-rule:evenodd;stroke-linecap:round;stroke-linejoin:round;stroke-miterlimit:1.5;">
    <g transform="matrix(1,0,0,1,-19.5,-19.5)">
        <rect x="0" y="0" width="512" height="512"/>
        <g transform="matrix(0.874074,0,0,0.874074,228.03,170.341)">
            <circle cx="32" cy="98" r="270" style="fill:rgb(0,251,0);stroke:rgb(0,251,0);stroke-width:1.14px;"/>
        </g>
        <path d="M512,512L279.992,512L165,397.008L352,119L512,279L512,512" style="fill-opacity:0.5;"/>
        <g transform="matrix(1.45357,0,0,1.45357,-116.115,-116.115)">
            <g transform="matrix(-1,0,0,1,485.492,168.023)">
                <g transform="matrix(6.12323e-17,-1,1,6.12323e-17,-26,343.97)">
                    <path d="M340,309C346.845,309 353,303.443 353,296.598L353,197.386C353,190.542 347.443,184.985 340.598,184.985L171.386,184.985C164.542,184.985 158.985,190.542 158.985,197.386L158.985,318L169,326L227,326L236,317L248,317L251,320L251,324L253,326L269,326L286,309L340,309" style="fill:white;"/>
                </g>
                <g transform="matrix(6.12323e-17,-1,1,6.12323e-17,-26,343.97)">
                    <clipPath id="_clip1">
                        <rect x="158.985" y="184.985" width="194.015" height="62.015"/>
                    </clipPath>
                    <g clip-path="url(#_clip1)">
                        <path d="M340,309C346.845,309 353,303.443 353,296.598L353,197.386C353,190.542 347.443,184.985 340.598,184.985L171.386,184.985C164.542,184.985 158.985,190.542 158.985,197.386L158.985,318L169,326L227,326L236,317L248,317L251,320L251,324L253,326L269,326L286,309L340,309" style="fill:white;"/>
                    </g>
                </g>
            </g>
            <g>
                <g transform="matrix(1.5,0,0,1.5,-176.261,-93.5)">
                    <path d="M267,179C267,177.896 266.104,177 265,177L261,177C259.896,177 259,177.896 259,179L259,195C259,196.104 259.896,197 261,197L265,197C266.104,197 267,196.104 267,195L267,179Z" style="fill:rgb(0,251,0);"/>
                </g>
                <g transform="matrix(1.5,0,0,1.5,-157.754,-93.5)">
                    <path d="M267,179C267,177.896 266.104,177 265,177L261,177C259.896,177 259,177.896 259,179L259,195C259,196.104 259.896,197 261,197L265,197C266.104,197 267,196.104 267,195L267,179Z" style="fill:rgb(0,251,0);"/>
                </g>
                <g transform="matrix(1.5,0,0,1.5,-139.254,-93.5)">
                    <path d="M267,179C267,177.896 266.104,177 265,177L261,177C259.896,177 259,177.896 259,179L259,195C259,196.104 259.896,197 261,197L265,197C266.104,197 267,196.104 267,195L267,179Z" style="fill:rgb(0,251,0);"/>
                </g>
                <g transform="matrix(1.5,0,0,1.5,-120.754,-93.5)">
                    <path d="M267,179C267,177.896 266.104,177 265,177L261,177C259.896,177 259,177.896 259,179L259,195C259,196.104 259.896,197 261,197L265,197C266.104,197 267,196.104 267,195L267,179Z" style="fill:rgb(0,251,0);"/>
                </g>
                <g transform="matrix(1.5,0,0,1.5,-102.254,-93.5)">
                    <path d="M267,179C267,177.896 266.104,177 265,177L261,177C259.896,177 259,177.896 259,179L259,195C259,196.104 259.896,197 261,197L265,197C266.104,197 267,196.104 267,195L267,179Z" style="fill:rgb(0,251,0);"/>
                </g>
                <g transform="matrix(1.5,0,0,1.5,-83.7538,-93.5)">
                    <path d="M267,179C267,177.896 266.104,177 265,177L261,177C259.896,177 259,177.896 259,179L259,195C259,196.104 259.896,197 261,197L265,197C266.104,197 267,196.104 267,195L267,179Z" style="fill:rgb(0,251,0);"/>
                </g>
            </g>
        </g>
    </g>
</svg>
