<svg id="Layer_1" data-name="Layer 1" xmlns="http://www.w3.org/2000/svg" viewBox="0 0 181.84 181.84"><defs><style>.cls-1{fill:#14a0c1;stroke-width:2.74px;}.cls-1,.cls-4{stroke:#d4d700;}.cls-1,.cls-3,.cls-4{stroke-miterlimit:10;}.cls-2{fill:#d4d700;}.cls-3,.cls-4{fill:none;}.cls-3{stroke:#14a0c1;stroke-width:5px;}.cls-4{stroke-width:2px;}.cls-5{fill:#fff;}</style></defs><title>CameraIconFin</title><circle class="cls-1" cx="90.92" cy="90.92" r="89.55"/><path class="cls-2" d="M156.14,47.82H143.32a2.69,2.69,0,0,1-2.12-1l-4.61-5.9a8.63,8.63,0,0,0-6.8-3.32H100.56a8.63,8.63,0,0,0-7.12,3.76L89.8,46.7a2.69,2.69,0,0,1-2.22,1.17H25.7A2.7,2.7,0,0,0,23,50.56v79.83a2.7,2.7,0,0,0,2.68,2.69H156.14a2.7,2.7,0,0,0,2.68-2.69V50.51A2.7,2.7,0,0,0,156.14,47.82ZM90.81,121.6a30.76,30.76,0,1,1,30.76-30.76h0A30.76,30.76,0,0,1,90.81,121.6Z" transform="translate(0 0)"/><path class="cls-3" d="M156.14,47.82H143.32a2.69,2.69,0,0,1-2.12-1l-4.61-5.9a8.63,8.63,0,0,0-6.8-3.32H100.56a8.63,8.63,0,0,0-7.12,3.76L89.8,46.7a2.69,2.69,0,0,1-2.22,1.17H25.7A2.7,2.7,0,0,0,23,50.56v79.83a2.7,2.7,0,0,0,2.68,2.69H156.14a2.7,2.7,0,0,0,2.68-2.69V50.51A2.7,2.7,0,0,0,156.14,47.82ZM90.81,121.6a30.76,30.76,0,1,1,30.76-30.76h0A30.76,30.76,0,0,1,90.81,121.6Z" transform="translate(0 0)"/><path class="cls-4" d="M156.14,47.82H143.32a2.69,2.69,0,0,1-2.12-1l-4.61-5.9a8.63,8.63,0,0,0-6.8-3.32H100.56a8.63,8.63,0,0,0-7.12,3.76L89.8,46.7a2.69,2.69,0,0,1-2.22,1.17H25.7A2.7,2.7,0,0,0,23,50.56v79.83a2.7,2.7,0,0,0,2.68,2.69H156.14a2.7,2.7,0,0,0,2.68-2.69V50.51A2.7,2.7,0,0,0,156.14,47.82ZM90.81,121.6a30.76,30.76,0,1,1,30.76-30.76h0A30.76,30.76,0,0,1,90.81,121.6Z" transform="translate(0 0)"/><rect class="cls-5" x="110.6" y="43.91" width="18.8" height="3.51" rx="1.75"/><rect class="cls-5" x="100.75" y="43.91" width="7.65" height="3.51" rx="1.75"/><path class="cls-5" d="M63.31,160.66V140.84h8.43a14.63,14.63,0,0,1,4.62.53,4.54,4.54,0,0,1,2.3,1.9,5.69,5.69,0,0,1,.87,3.13,5.31,5.31,0,0,1-1.31,3.68,6.29,6.29,0,0,1-3.92,1.83,9.35,9.35,0,0,1,2.14,1.67,22.51,22.51,0,0,1,2.28,3.22l2.42,3.86H76.35l-2.89-4.31a27.92,27.92,0,0,0-2.11-2.91,3,3,0,0,0-1.21-.83,6.52,6.52,0,0,0-2-.22h-.81v8.27Zm4-11.44h3a15.55,15.55,0,0,0,3.6-.24,2.15,2.15,0,0,0,1.12-.84,2.59,2.59,0,0,0,.41-1.49,2.36,2.36,0,0,0-.54-1.61,2.48,2.48,0,0,0-1.51-.78c-.32,0-1.3-.07-2.92-.07H67.32Z" transform="translate(0 0)"/><path class="cls-5" d="M83.3,160.66V140.84H98v3.35H87.31v4.4h10v3.34h-10v5.39H98.38v3.34Z" transform="translate(0 0)"/><path class="cls-5" d="M114.46,153.38l3.88,1.23a8.7,8.7,0,0,1-3,4.82,9.35,9.35,0,0,1-11.76-1.13,10.27,10.27,0,0,1-2.55-7.37c0-3.3.86-5.87,2.56-7.69a8.75,8.75,0,0,1,6.72-2.74,8.25,8.25,0,0,1,5.91,2.15,7.82,7.82,0,0,1,2,3.65l-4,.95a4.28,4.28,0,0,0-1.47-2.44,4.23,4.23,0,0,0-2.71-.89,4.54,4.54,0,0,0-3.58,1.58q-1.36,1.59-1.37,5.13,0,3.76,1.35,5.35a4.37,4.37,0,0,0,3.52,1.6,4,4,0,0,0,2.74-1A5.86,5.86,0,0,0,114.46,153.38Z" transform="translate(0 0)"/></svg>